# xmcd
#
# Track frame offsets:
#	150
#	18955
#	37109
#	53884
#	69756
#	85795
#	99597
#	116295
#	132787
#	147823
#	166454
#
# Disc length: 2420 seconds
#
# Revision: 1
# Processed by: cddbd v1.5.2PL0 Copyright (c) Steve Scherf et al.
# Submitted via: audiograbber 1.83.01
#
DISCID=8709720b
DTITLE=Nik Chamberlain - Stormy Weather
DYEAR=2007
DGENRE=Soul, RnB
TTITLE0=Call Me When You Wanna Get Down
TTITLE1=Girl So Fine
TTITLE2=If U Believe In Love
TTITLE3=Into Your Deep Sea
TTITLE4=Nursery Rhyme
TTITLE5=People Gather Round
TTITLE6=She Was Playin Wit Me
TTITLE7=Stormy Weather
TTITLE8=My Mamma Told Me
TTITLE9=The Way That She Moves
TTITLE10=Atlanta Heartbreak
EXTD=
EXTT0=
EXTT1=
EXTT2=
EXTT3=
EXTT4=
EXTT5=
EXTT6=
EXTT7=
EXTT8=
EXTT9=
EXTT10=
PLAYORDER=
